<svg width="25" height="25" viewBox="0 0 25 25" fill="none" xmlns="http://www.w3.org/2000/svg">
<path d="M7.3333 11.09L11.6233 15.33C11.7163 15.4237 11.8269 15.4981 11.9487 15.5489C12.0706 15.5997 12.2013 15.6258 12.3333 15.6258C12.4653 15.6258 12.596 15.5997 12.7179 15.5489C12.8397 15.4981 12.9503 15.4237 13.0433 15.33L17.2833 11.09C17.377 10.997 17.4514 10.8864 17.5022 10.7646C17.553 10.6427 17.5791 10.512 17.5791 10.38C17.5791 10.248 17.553 10.1173 17.5022 9.99542C17.4514 9.87356 17.377 9.76296 17.2833 9.67C17.0959 9.48374 16.8425 9.3792 16.5783 9.3792C16.3141 9.3792 16.0607 9.48374 15.8733 9.67L12.3333 13.21L8.7933 9.66999C8.60704 9.48525 8.35564 9.3811 8.0933 9.37999C7.9617 9.37923 7.83123 9.40446 7.7094 9.45422C7.58756 9.50399 7.47674 9.57731 7.3833 9.66999C7.28623 9.75961 7.20787 9.86758 7.15277 9.98765C7.09766 10.1077 7.06689 10.2375 7.06224 10.3696C7.0576 10.5016 7.07916 10.6333 7.12568 10.7569C7.17221 10.8806 7.24277 10.9938 7.3333 11.09Z" fill="#FCA311"/>
</svg>
